<?xml version="1.0" encoding="utf-8"?>
<!-- Generator: Adobe Illustrator 24.1.1, SVG Export Plug-In . SVG Version: 6.00 Build 0)  -->
<svg version="1.1" id="Livello_1" xmlns="http://www.w3.org/2000/svg" xmlns:xlink="http://www.w3.org/1999/xlink" x="0px" y="0px"
	 viewBox="0 0 804.61 323.28" style="enable-background:new 0 0 804.61 323.28;" xml:space="preserve">
<style type="text/css">
	.st0{fill:#E5007E;}
</style>
<g>
	<path class="st0" d="M171.24,99.64h-1.1v-3.48l-1.42,2.26h-0.1l-1.42-2.26v3.48h-1.1V94.5h1.23l1.35,2.17l1.35-2.17h1.2V99.64z
		 M165.01,95.53h-1.54v4.11h-1.17v-4.11h-1.54V94.5h4.24V95.53z M310.55,58.46c-1.42-9.84-4.72-18.92-9.92-27.21
		c-5.2-8.29-12.02-14.99-20.46-20.05c-6.47-3.64-13.22-6.25-20.24-7.79c-7.04-1.55-14.22-2.59-21.53-3.16
		c-13.5-0.86-26.44,0.57-38.82,4.2c-12.38,3.66-23.92,9.72-34.59,18.15c-8.15,6.47-15.4,13.72-21.73,21.74
		c-6.32,8.02-12.09,16.52-17.29,25.53c-5.22,9-9.99,18.28-14.35,27.85c-4.36,9.56-8.51,18.97-12.45,28.26
		c-4.22,9.85-8.43,19.83-12.65,29.96c-4.22,10.13-8.72,20.12-13.51,29.96c-4.21,9-8.93,17.87-14.13,26.58
		c-5.2,8.72-11.47,16.6-18.78,23.62c-6.18,6.76-13.63,11.83-22.35,15.2v-23.2c0-7.6,0.27-15.19,0.84-22.8
		c0-2.52,0.07-5.05,0.21-7.59c0.14-2.52,0.36-5.07,0.63-7.59c0.27-1.41,0.5-2.68,0.64-3.79c0.14-1.13-0.07-2.39-0.64-3.81
		c-0.57-2.52-1.75-4.43-3.59-5.68c-1.82-1.27-3.79-1.98-5.9-2.11c-2.11-0.14-4.22,0.34-6.32,1.48c-2.11,1.12-3.59,2.95-4.43,5.48
		c-0.57,1.41-0.79,2.75-0.63,4.02c0.14,1.25,0.34,2.59,0.63,4c0.28,2.25,0.48,4.63,0.62,7.18c0.14,2.52,0.22,4.93,0.22,7.18
		c0.55,6.47,0.84,12.79,0.84,18.99v18.99c0,11.81-0.15,23.42-0.43,34.8c-0.27,11.4-0.84,22.99-1.68,34.82
		c-0.29,3.09,0.48,5.55,2.32,7.38c1.84,1.82,3.93,2.95,6.34,3.37c2.39,0.43,4.77,0.07,7.18-1.05c2.39-1.12,4-3.09,4.84-5.91
		c0.57-2.25,0.7-4.5,0.43-6.75c-0.29-2.25-0.43-4.36-0.43-6.34c-0.27-3.38-0.5-6.75-0.63-10.13c-0.14-3.38-0.21-6.61-0.21-9.7
		c-0.27-2.25-0.43-4.36-0.43-6.33v-6.32c1.41,0.27,2.88,0.48,4.45,0.62c1.53,0.15,3,0.5,4.43,1.06c4.77,1.41,9,3.52,12.65,6.33
		c3.66,2.8,7.02,6.18,10.13,10.11c3.09,3.95,5.98,7.88,8.64,11.81c2.68,3.95,5.84,7.61,9.49,10.97c7.31,6.49,15.9,10.13,25.75,10.97
		c3.09,0.29,6.11-0.05,9.06-1.05c2.95-0.98,4.86-3.3,5.7-6.97c0.55-3.93-0.43-7.02-2.95-9.27c-2.54-2.25-5.63-3.38-9.29-3.38
		c-7.31-0.55-13.36-3.37-18.15-8.43c-3.37-3.38-6.47-7.04-9.27-10.97c-2.82-3.95-5.91-7.74-9.29-11.4
		c-5.36-5.34-11.54-9.56-18.56-12.65c6.75-5.07,12.79-10.9,18.13-17.51c5.34-6.61,10.26-13.56,14.78-20.89
		c6.46-10.68,12.29-21.65,17.5-32.89c5.2-11.26,10.2-22.65,14.99-34.18c4.77-11.54,9.7-23.01,14.77-34.39
		c5.06-11.4,10.54-22.58,16.45-33.55c5.63-10.13,11.97-19.9,18.99-29.33c7.04-9.43,15.47-17.36,25.32-23.83
		c4.77-3.11,9.77-5.77,14.97-8.02c5.2-2.25,10.63-3.81,16.26-4.65c2.52-0.55,5.2-0.84,8.02-0.84c2.8,0,5.34-0.27,7.59-0.84
		c2.25-0.27,4.43-0.27,6.54,0c2.11,0.28,4.14,0.57,6.11,0.84c7.6,0.84,15.12,2.61,22.58,5.27c7.45,2.68,13.72,7.11,18.78,13.29
		c4.2,5.36,7.02,11.26,8.43,17.73c1.41,6.47,2.25,12.93,2.54,19.4c-0.29,0-0.43,0.16-0.43,0.43v0.84v2.95
		c0,3.38-0.43,6.47-1.27,9.29c-0.84,3.93-1.97,7.66-3.37,11.18c-1.41,3.52-3.24,6.95-5.49,10.33c-5.34,8.43-12.65,14.83-21.94,19.2
		c-9.27,4.36-18.85,6.83-28.69,7.38c-5.63,0.29-11.04,0.22-16.24-0.21c-5.2-0.43-10.49-1.75-15.83-4.02
		c-6.47-3.09-11.95-7.66-16.45-13.7c-4.5-6.04-6.9-12.72-7.18-20.05c-0.27-3.93-2.18-6.88-5.7-8.86c-3.52-1.96-6.95-1.96-10.34,0
		c-3.93,2.27-5.7,5.56-5.27,9.92c0.43,4.36,1.18,8.38,2.32,12.02c3.09,9.85,7.74,18.01,13.92,24.48
		c6.75,7.31,14.76,12.59,24.05,15.81c9.29,3.24,18.83,4.72,28.69,4.43c10.97-0.27,21.94-1.96,32.91-5.06
		c10.97-3.09,20.53-8.43,28.69-16.02c10.7-9.85,17.94-21.38,21.74-34.61C311.59,85.74,312.5,72.25,310.55,58.46"/>
	<path class="st0" d="M143.87,298.75c0-2.66-0.14-5.41-0.43-8.22c-0.27-6.47-0.48-13.01-0.62-19.62
		c-0.16-6.61-0.22-13.15-0.22-19.62c0-10.68,0.14-21.51,0.43-32.48c0.27-10.97,0.84-21.8,1.68-32.48c0.27-3.11-0.52-5.63-2.37-7.61
		c-1.87-1.96-4.09-3.16-6.68-3.59c-2.58-0.41-5.08,0-7.52,1.27c-2.44,1.27-3.95,3.45-4.53,6.54c-0.56,1.41-0.7,2.95-0.41,4.64
		c0.28,1.7,0.41,3.24,0.41,4.65c0.28,3.37,0.5,6.68,0.64,9.91c0.14,3.24,0.21,6.54,0.21,9.92c1.41,26.44,1.41,52.74,0,78.89
		c0,2.82-0.07,5.56-0.21,8.24c-0.14,2.68-0.36,5.41-0.64,8.22c-0.27,1.41-0.48,2.75-0.63,4c-0.14,1.27,0.07,2.61,0.63,4.02
		c0.86,2.52,2.3,4.43,4.31,5.7c2.01,1.25,4.17,1.82,6.46,1.68c2.3-0.15,4.46-0.91,6.47-2.32c2.01-1.41,3.3-3.38,3.86-5.9
		c0.27-1.41,0.34-2.68,0.21-3.81c-0.14-1.12-0.34-2.39-0.62-3.79C144.01,304.18,143.87,301.43,143.87,298.75"/>
	<path class="st0" d="M274.46,302.34c-2.39-0.84-5-1.41-7.81-1.68c-3.93-0.29-7.45-1.41-10.54-3.38c-3.11-1.96-5.84-4.43-8.23-7.38
		c-2.4-2.95-4.72-6.04-6.97-9.29c-2.25-3.23-4.5-6.11-6.75-8.65c-3.11-3.37-6.75-6.75-10.97-10.11c1.41-0.57,2.66-1.2,3.79-1.91
		c1.12-0.7,2.25-1.34,3.38-1.91c6.75-3.93,12.58-8.86,17.51-14.77c4.91-5.9,8.93-12.36,12.02-19.4c2.54-5.91,4.36-11.88,5.49-17.94
		c1.12-6.04,2.1-12.29,2.95-18.76c0,0.57,0.14,0.41,0.41-0.43c0.27-2.8-0.36-5.27-1.89-7.38c-1.56-2.11-3.52-3.52-5.91-4.22
		c-2.4-0.69-4.79-0.64-7.18,0.22c-2.4,0.84-4.15,2.52-5.27,5.05c-1.13,2.27-1.47,4.72-1.06,7.4c0.43,2.66,0.5,5.27,0.21,7.79
		c0,4.5-0.41,8.86-1.25,13.08c-1.43,7.04-3.95,13.22-7.61,18.56c-4.77,7.61-11.95,13.65-21.51,18.15c-2.54,1.41-5.2,2.4-8.02,2.95
		c-2.82,0.57-5.77,1.13-8.86,1.7c-1.41,0.27-2.82,0.48-4.22,0.62c-1.41,0.15-2.82,0.22-4.22,0.22h-2.52v-20.26
		c0-6.75,0.14-13.49,0.41-20.26c0.29-2.8,0.43-5.55,0.43-8.22c0-2.66,0.14-5.41,0.43-8.23c0.27-1.68,0.62-3.59,1.05-5.7
		c0.43-2.11,0.34-4-0.21-5.7c-0.57-2.52-1.77-4.43-3.59-5.68c-1.84-1.27-3.79-2.04-5.9-2.34c-2.11-0.28-4.22,0.15-6.34,1.27
		c-2.11,1.13-3.59,2.82-4.43,5.06c-0.84,1.68-1.13,3.52-0.84,5.49c0.27,1.96,0.43,3.93,0.43,5.9c0.27,2.52,0.48,5.07,0.62,7.59
		c0.14,2.52,0.36,5.2,0.63,8.02c0.28,6.18,0.43,12.31,0.43,18.35v18.78c0,10.97-0.15,22.01-0.43,33.12
		c-0.27,11.11-0.84,22.28-1.68,33.55c-0.29,2.82,0.43,5.13,2.11,6.95c1.68,1.84,3.73,3.02,6.11,3.59c2.39,0.57,4.7,0.34,6.97-0.64
		c2.25-0.98,3.93-2.75,5.07-5.27c0.84-1.96,1.12-4.07,0.84-6.33c-0.29-2.25-0.43-4.36-0.43-6.32c-0.27-3.09-0.5-6.2-0.64-9.29
		c-0.14-3.09-0.21-6.18-0.21-9.29c0-2.25-0.07-4.36-0.21-6.32c-0.16-1.97-0.22-4.09-0.22-6.33h4.65c7.02,0.84,13.36,3.79,18.99,8.86
		c3.37,2.82,6.32,5.98,8.86,9.49c2.52,3.52,5.07,6.97,7.59,10.34c2.82,3.66,5.9,6.97,9.29,9.92c3.37,2.95,7.02,5.41,10.97,7.38
		c5.91,2.52,12.24,3.8,18.99,3.8c3.64,0,6.61-1.41,8.86-4.22c2.25-2.8,2.8-6.04,1.68-9.7C278.6,305.16,276.84,303.18,274.46,302.34"
		/>
	<path class="st0" d="M375.08,256.78c-8.15-3.09-16.81-4.86-25.94-5.27c-9.15-0.43-17.8,0.48-25.96,2.73
		c-3.66,0.84-7.16,2.11-10.54,3.8c0-5.34,0.07-10.61,0.21-15.81c0.14-5.2,0.64-10.47,1.48-15.83c0.84-4.22,2.04-8.57,3.59-13.08
		c1.54-4.48,4.02-8.15,7.38-10.97c2.81-2.25,5.91-3.64,9.29-4.2c3.37-0.57,6.75-1,10.13-1.27l1.25,0.43h5.07
		c5.34,0.84,9.56,2.39,12.67,4.64c3.64,2.52,6.25,6.11,7.79,10.76c1.55,4.63,2.61,9.06,3.18,13.29c1.12,5.34,1.75,10.61,1.89,15.81
		c0.14,5.22,0.21,10.49,0.21,15.83C376.2,257.62,375.65,257.34,375.08,256.78 M394.28,298.75c-0.14-3.79-0.21-7.66-0.21-11.61
		c-0.28-10.41-0.28-20.81,0-31.21c0.27-10.4-0.14-20.83-1.27-31.23c-0.84-8.16-2.73-16.04-5.68-23.62
		c-2.95-7.61-8.1-13.65-15.4-18.15c-5.63-3.93-12.17-6.18-19.62-6.75c-7.47-0.57-14.42-0.14-20.89,1.25
		c-8.72,1.98-15.76,5.99-21.1,12.04c-5.34,6.04-9,13.15-10.97,21.31c-2.52,10.4-3.73,20.96-3.57,31.64
		c0.14,10.7,0.05,21.38-0.22,32.07c0,10.13-0.41,19.97-1.25,29.53c-0.29,3.11-0.43,6.27-0.43,9.5c0,3.24,1.55,5.84,4.63,7.81
		c3.95,2.52,7.74,2.59,11.4,0.21c3.66-2.39,5.34-5.7,5.07-9.91c-0.29-3.38-0.57-6.82-0.84-10.35c-0.29-3.5-0.43-6.95-0.43-10.34
		c-0.27-2.25-0.43-4.34-0.43-6.32v-5.91c0-0.27,0.16-0.43,0.43-0.43c3.38-1.68,6.97-2.88,10.76-3.59c3.8-0.71,7.52-1.19,11.18-1.48
		c8.72-0.84,16.88-0.7,24.46,0.43c2.82,0.57,5.7,1.2,8.65,1.89c2.95,0.7,5.7,1.77,8.22,3.17c0,5.63-0.07,11.11-0.21,16.45
		c-0.14,5.36-0.36,10.83-0.63,16.47c-0.27,1.96,0.14,3.86,1.27,5.68c1.12,1.84,2.68,3.04,4.64,3.59c3.66,1.41,6.76,0.93,9.29-1.48
		c2.52-2.39,3.8-5.41,3.8-9.06C394.64,306.43,394.41,302.55,394.28,298.75"/>
</g>
<g>
	<path class="st0" d="M479.53,319.28H415.5V184.69h62.49c27.5,0,44.42,13.65,44.42,34.8v0.38c0,15.19-8.08,23.65-17.69,29.03
		c15.57,5.96,25.19,15,25.19,33.07v0.38C529.91,306.97,509.91,319.28,479.53,319.28z M492.99,224.49c0-8.84-6.92-13.84-19.42-13.84
		h-29.23v28.46h27.3c13.08,0,21.34-4.23,21.34-14.23V224.49z M500.49,278.32c0-9.04-6.73-14.61-21.92-14.61h-34.23v29.61h35.19
		c13.08,0,20.96-4.61,20.96-14.61V278.32z"/>
	<path class="st0" d="M610.19,321.59c-41.53,0-71.33-30.96-71.33-69.22v-0.38c0-38.26,30.19-69.6,71.72-69.6
		c41.53,0,71.33,30.96,71.33,69.22v0.38C681.91,290.25,651.72,321.59,610.19,321.59z M650.95,251.98c0-23.07-16.92-42.3-40.76-42.3
		c-23.84,0-40.38,18.84-40.38,41.92v0.38c0,23.07,16.92,42.3,40.76,42.3c23.84,0,40.38-18.84,40.38-41.92V251.98z"/>
	<path class="st0" d="M768.41,319.28l-30.19-46.15l-30.38,46.15h-33.65l46.91-68.45l-44.99-66.14h34.61l28.26,43.65l28.46-43.65
		h33.65l-44.99,65.76l46.91,68.84H768.41z"/>
</g>
</svg>
